<?xml version="1.0" encoding="UTF-8"?>
<svg width="45px" height="44px" viewBox="0 0 45 44" version="1.1" xmlns="http://www.w3.org/2000/svg" xmlns:xlink="http://www.w3.org/1999/xlink">
    <title>AA72035F-B43C-4217-BAD1-0A912C837106</title>
    <g id="Page-1" stroke="none" stroke-width="1" fill="none" fill-rule="evenodd">
        <g id="Get-Medicins" transform="translate(-793.000000, -1120.000000)" fill-rule="nonzero">
            <g id="WHY-DAVAGENIE" transform="translate(237.657143, 1004.000000)">
                <g id="Mental" transform="translate(491.000000, 79.000000)">
                    <g id="Group" transform="translate(65.000000, 37.000000)">
                        <path d="M34.4561717,24.9080743 C29.1923077,24.9080743 24.9123435,29.1889958 24.9123435,34.4540371 C24.9123435,39.7190785 29.1923077,44 34.4561717,44 C39.7200358,44 44,39.7190785 44,34.4540371 C44,29.1889958 39.7200358,24.9080743 34.4561717,24.9080743 Z" id="Shape" fill="#2D2D94"></path>
                        <ellipse id="Oval" fill="#8AC832" cx="23.6332737" cy="23.6287184" rx="1.40697674" ry="1.40729143"></ellipse>
                        <ellipse id="Oval" fill="#8AC832" cx="15.9686941" cy="15.9624245" rx="1.40697674" ry="1.40729143"></ellipse>
                        <path d="M34.4561717,22.9398345 C35.5483005,22.9398345 36.6010733,23.0972937 37.6046512,23.3826884 C37.6243292,23.3531648 37.6341682,23.3236412 37.6538462,23.2941176 L39.2477639,20.8731827 C39.6806798,20.2138224 39.6806798,19.3674793 39.2477639,18.708119 L37.6538462,16.2871841 C37.1914132,15.588459 36.9651163,14.7421159 37.0143113,13.905614 L37.1717352,10.9827779 C37.2110912,10.2053232 36.7880143,9.46723328 36.0894454,9.11295012 L33.5017889,7.80407068 C32.744186,7.42026392 32.1440072,6.81995079 31.7602862,6.06217848 L30.4713775,3.48378439 C30.1171735,2.78505927 29.3890877,2.36188772 28.6019678,2.40125252 L25.6797853,2.5587117 C24.8434705,2.60791769 23.9973166,2.37172892 23.2987478,1.91903377 L20.8783542,0.324759562 C20.2191413,-0.108253187 19.3729875,-0.108253187 18.7137746,0.324759562 L16.293381,1.92887497 C15.5948122,2.39141132 14.7486583,2.61775889 13.9123435,2.5685529 L10.990161,2.41109372 C10.2128801,2.36188772 9.47495528,2.79490047 9.12075134,3.49362559 L7.81216458,6.08186088 C7.42844365,6.83963319 6.82826476,7.43994632 6.0706619,7.82375308 L3.48300537,9.13263252 C2.78443649,9.48691568 2.36135957,10.2151644 2.40071556,11.0024603 L2.55813953,13.9252964 C2.60733453,14.7617983 2.37119857,15.6081414 1.91860465,16.3068665 L0.324686941,18.7278014 C-0.10822898,19.3871617 -0.10822898,20.2335048 0.324686941,20.8928651 L1.93828265,23.2941176 C2.40071556,23.9928428 2.62701252,24.8391859 2.57781753,25.6756878 L2.42039356,28.5985238 C2.38103757,29.3759785 2.80411449,30.1140684 3.50268336,30.4683516 L6.09033989,31.777231 C6.84794275,32.1610378 7.44812165,32.7613509 7.83184258,33.5191232 L9.14042934,36.1073585 C9.49463327,36.8060837 10.2227191,37.2292552 11.009839,37.1898904 L13.9320215,37.0324312 C14.7683363,36.9832252 15.6144902,37.219414 16.313059,37.6721091 L18.7334526,39.2663834 C19.3926655,39.6993961 20.2388193,39.6993961 20.8980322,39.2663834 L23.3184258,37.6721091 C23.3479428,37.6524268 23.3774597,37.6425856 23.4069767,37.6229032 C23.1216458,36.6191009 22.9642218,35.5660926 22.9642218,34.4737195 C22.9445438,28.1064639 28.1100179,22.9398345 34.4561717,22.9398345 Z M15.9686941,12.5770521 C17.8282648,12.5770521 19.3434705,14.0925967 19.3434705,15.9525833 C19.3434705,17.8125699 17.8282648,19.3281145 15.9686941,19.3281145 C14.1091234,19.3281145 12.5939177,17.8125699 12.5939177,15.9525833 C12.5939177,14.0925967 14.0992844,12.5770521 15.9686941,12.5770521 Z M15.1914132,25.7937822 C14.9946333,25.9906061 14.7486583,26.0791769 14.4928444,26.0791769 C14.2370304,26.0791769 13.9910555,25.9807649 13.7942755,25.7937822 C13.4105546,25.4099754 13.4105546,24.7899799 13.7942755,24.4061731 L24.7155635,13.4824424 C25.0992844,13.0986357 25.7191413,13.0986357 26.1028623,13.4824424 C26.4865832,13.8662492 26.4865832,14.4862447 26.1028623,14.8700514 L15.1914132,25.7937822 Z M20.2486583,23.6287184 C20.2486583,21.7687318 21.763864,20.2531872 23.6234347,20.2531872 C25.4830054,20.2531872 26.9982111,21.7687318 26.9982111,23.6287184 C26.9982111,25.488705 25.4830054,27.0042496 23.6234347,27.0042496 C21.763864,27.0042496 20.2486583,25.488705 20.2486583,23.6287184 Z" id="Shape" fill="#8AC832"></path>
                        <path d="M32.2974603,31.0950192 C31.9929147,31.0950192 31.7460317,31.3338718 31.7460317,31.6285116 C31.7460317,31.9231513 31.9929147,32.162004 32.2974603,32.162004 L33.4003175,32.162004 C34.1117864,32.150205 34.7513451,32.5798966 34.9884317,33.2289888 L32.2974603,33.2289888 C31.9929147,33.2289888 31.7460317,33.4678415 31.7460317,33.7624812 C31.7460317,34.057121 31.9929147,34.2959737 32.2974603,34.2959737 L34.9443175,34.2959737 C34.7125726,34.9302233 34.0956148,35.3565734 33.4003175,35.3629585 L32.2974603,35.3629585 C32.0758468,35.363845 31.876314,35.4930006 31.7909065,35.6908458 C31.705499,35.888691 31.7508134,36.1167802 31.905946,36.2698956 L35.2145175,39.4708501 C35.317674,39.5726702 35.4586647,39.630306 35.6060317,39.6309068 C35.7526031,39.6317177 35.8934811,39.5760476 35.997546,39.476185 C36.1019384,39.376013 36.1606577,39.2396545 36.1606577,39.0974054 C36.1606577,38.9551563 36.1019384,38.8187979 35.997546,38.7186258 L33.6153746,36.4299433 C34.8399893,36.331882 35.8497159,35.4616072 36.0912889,34.2959737 L36.7088889,34.2959737 C37.0134345,34.2959737 37.2603175,34.057121 37.2603175,33.7624812 C37.2603175,33.4678415 37.0134345,33.2289888 36.7088889,33.2289888 L36.1023175,33.2289888 C36.0261753,32.8404396 35.8561171,32.4748248 35.6060317,32.162004 L36.7088889,32.162004 C37.0134345,32.162004 37.2603175,31.9231513 37.2603175,31.6285116 C37.2603175,31.3338718 37.0134345,31.0950192 36.7088889,31.0950192 L32.2974603,31.0950192 Z" id="Path" fill="#FFFFFF"></path>
                    </g>
                </g>
            </g>
        </g>
    </g>
</svg>