<?xml version="1.0" encoding="UTF-8"?>
<svg width="40px" height="45px" viewBox="0 0 40 45" version="1.1" xmlns="http://www.w3.org/2000/svg" xmlns:xlink="http://www.w3.org/1999/xlink">
    <title>24C55E76-6160-497E-9D4F-A8EC0AA5B6D6</title>
    <g id="Page-1" stroke="none" stroke-width="1" fill="none" fill-rule="evenodd">
        <g id="Get-Medicins" transform="translate(-1320.000000, -1127.000000)" fill-rule="nonzero">
            <g id="WHY-DAVAGENIE" transform="translate(237.657143, 1004.000000)">
                <g id="Mental" transform="translate(1031.000000, 81.000000)">
                    <g id="Group" transform="translate(52.000000, 43.000000)">
                        <path d="M36.5062375,31.7349598 C37.8982213,31.7148658 39.0125556,30.5671894 39,29.1666913 L39,2.57298041 C39,2.49515409 39,2.40359372 39,2.32118938 L39,2.22047297 C38.9718266,2.01907369 38.9230261,1.82115524 38.8542782,1.62990855 L38.7860212,1.48341195 L38.7860212,1.43763176 C38.7552425,1.36085969 38.717144,1.28726772 38.6722596,1.21788686 C38.6502303,1.17980951 38.6259161,1.14311742 38.5994521,1.10801441 L38.5721493,1.07139026 C38.5254419,1.01634007 38.4752845,0.964349861 38.4219839,0.915737625 C38.374766,0.855401487 38.3230442,0.798775135 38.2672681,0.746350932 C38.1671887,0.640193213 38.0575044,0.5436383 37.9396345,0.457935751 L37.8395242,0.402999526 L37.7439644,0.338907264 L37.5710467,0.251924908 C37.4422571,0.181427912 37.3044563,0.129054634 37.1615047,0.0962722707 L37.0613945,0.0688041583 L36.9567337,0.0688041583 L36.9567337,0.0688041583 C36.8068099,0.0397443393 36.6543592,0.0259407054 36.5016871,0.0276019896 L27.7329383,0.0276019896 L27.7329383,7.28833971 C27.7334618,7.85231561 27.4307118,8.37245851 26.9415685,8.6479613 C26.4524252,8.92346408 25.8534166,8.91122349 25.3757967,8.61596515 L23.0459579,7.1876233 C22.8437387,7.0620101 22.5883594,7.0620101 22.3861402,7.1876233 L20.0563014,8.62054316 C19.8166016,8.77287101 19.5389352,8.85381833 19.2554193,8.85402212 C18.9906691,8.85280885 18.7306304,8.78346559 18.5000419,8.6525893 C18.0010213,8.37977269 17.6941268,7.85048242 17.7037103,7.27918367 L17.7037103,0 L8.92586055,0 C8.77318843,-0.00152740701 8.62073778,0.0122762269 8.47081391,0.0413360458 C7.79817531,0.160202877 7.20484297,0.554836542 6.832646,1.13090451 L6.832646,1.17210667 C6.80079273,1.2270429 6.764389,1.28655714 6.73253574,1.35064941 C6.55386302,1.6852399 6.45274568,2.05616165 6.43675542,2.43563985 C6.43675542,2.43563985 6.43675542,2.472264 6.43675542,2.49515409 C6.43455964,2.52104917 6.43455964,2.54708533 6.43675542,2.57298041 L6.43675542,19.3788872 L6.85084786,19.1957665 L6.94185719,19.1591423 L7.3468487,18.9943336 L7.60167482,18.9027733 L7.92020747,18.7929008 L8.27969432,18.6784503 L8.53452044,18.6097801 L8.98956708,18.4953296 L9.19433807,18.4495494 C9.35815486,18.4129253 9.52197166,18.3808791 9.69033891,18.353411 L9.86325664,18.3213649 L10.3865603,18.2481166 L10.5458266,18.2481166 C10.7278453,18.2481166 10.9098639,18.2114924 11.0918826,18.2023364 L11.2374975,18.2023364 C11.4650208,18.2023364 11.6925441,18.2023364 11.9291684,18.2023364 C18.9794962,18.2223087 24.6963023,23.9553409 24.7387314,31.048257 C24.7387314,31.2771579 24.7387314,31.5060588 24.7387314,31.7349598 L36.5062375,31.7349598 Z" id="Path" fill="#8AC832"></path>
                        <path d="M23.8286381,31.048257 C23.8160931,24.4295986 18.4807018,19.0700942 11.9018656,19.0675819 C11.6697918,19.0675819 11.446819,19.0675819 11.2056442,19.090472 L11.0236256,19.090472 C10.8507079,19.090472 10.6777901,19.1179401 10.5003219,19.1408302 L10.3092023,19.1408302 C10.1302173,19.1621943 9.95274914,19.1896624 9.77679778,19.2232346 L9.62208192,19.2507027 C9.40365953,19.2964829 9.16703527,19.3422631 8.96226429,19.3971993 L8.96226429,19.3971993 C8.7438419,19.4521355 8.50721764,19.5162278 8.31154759,19.584898 L8.0658224,19.6718804 L7.70633555,19.8000649 L7.36960104,19.9328275 L7.15117865,20.0289659 C1.82842173,22.3650378 -1.04455293,28.2218333 0.350280702,33.8931566 C1.74511434,39.5644798 7.00129173,43.3976666 12.7926898,42.9670659 C18.5840879,42.5364653 23.2230517,37.9675575 23.7740325,32.1515595 L23.7740325,32.1515595 C23.7740325,31.9775948 23.8058858,31.8036301 23.8149867,31.6250873 C23.8240876,31.4465446 23.8149867,31.2451118 23.8149867,31.052835" id="Shape" stroke="#FFFAFA" stroke-width="1.2495" fill="#2D2D94"></path>
                        <path d="M17.1030487,30.819356 L13.398969,30.7735758 C13.2052903,30.1030781 12.5958947,29.6409347 11.9018656,29.6382272 C11.7714828,29.6405913 11.6417617,29.6574804 11.5150759,29.6885854 L8.53907091,24.7855273 C8.39621398,24.6143134 8.15134095,24.57193 7.95982368,24.6852694 C7.7683064,24.7986087 7.68615378,25.0345249 7.76549162,25.2433292 L10.7369462,30.1463873 C10.172802,30.7628067 10.1949266,31.7179017 10.7870013,32.3072121 L8.29789619,36.9584792 C8.23966935,37.0652643 8.22613917,37.1909906 8.26029946,37.3078388 C8.29445974,37.424687 8.37349415,37.5230236 8.47991484,37.5810897 C8.54745632,37.616318 8.62226354,37.6351331 8.69833723,37.6360259 C8.86606458,37.6355757 9.01994674,37.5423355 9.09877828,37.3933909 L11.5878834,32.760436 C11.6913691,32.7806242 11.7964583,32.79135 11.9018656,32.7924821 C12.5837914,32.7900518 13.1856898,32.3437649 13.3898681,31.6891796 L17.0939478,31.7349598 L17.0939478,31.7349598 C17.3452631,31.7349598 17.5489944,31.5299949 17.5489944,31.2771579 C17.5489944,31.0243209 17.3452631,30.819356 17.0939478,30.819356" id="Path" fill="#FFFFFF"></path>
                        <path d="M19.5830529,7.83770196 L21.9083413,6.40936011 C22.4022386,6.0976315 23.0298595,6.0976315 23.5237568,6.40936011 L25.8490452,7.84227998 C26.0464563,7.96969762 26.2977425,7.9767544 26.5019113,7.86061419 C26.7060801,7.74447398 26.8296065,7.52420724 26.822845,7.28833971 L26.822845,0.000133877159 L18.6320007,0.000133877159 L18.6320007,7.28833971 C18.631116,7.52061656 18.7552123,7.73519867 18.9563665,7.84921115 C19.1575207,7.96322364 19.4042466,7.95882037 19.6012548,7.83770196" id="Path" stroke="#FFFFFF" stroke-width="1.2495" fill="#2D2D94"></path>
                    </g>
                </g>
            </g>
        </g>
    </g>
</svg>