<?xml version="1.0" encoding="UTF-8"?>
<svg width="49px" height="32px" viewBox="0 0 49 32" version="1.1" xmlns="http://www.w3.org/2000/svg" xmlns:xlink="http://www.w3.org/1999/xlink">
    <title>E1389025-2B98-40B4-9551-54CEB6DADB18</title>
    <g id="Page-1" stroke="none" stroke-width="1" fill="none" fill-rule="evenodd">
        <g id="Get-Medicins" transform="translate(-294.000000, -1127.000000)">
            <g id="WHY-DAVAGENIE" transform="translate(237.657143, 1004.000000)">
                <g id="Mental" transform="translate(0.000000, 81.000000)">
                    <g id="noun_Shipping_3566204" transform="translate(57.000000, 42.000000)">
                        <path d="M8,22.5185185 C5.47657143,22.5185185 3.42857143,24.6423704 3.42857143,27.2592593 C3.42857143,29.8761481 5.47657143,32 8,32 C10.5234286,32 12.5714286,29.8761481 12.5714286,27.2592593 C12.5714286,24.6423704 10.5234286,22.5185185 8,22.5185185 Z" id="Path" fill="#2D2D94"></path>
                        <path d="M36.5714286,22.5185185 C34.048,22.5185185 32,24.6423704 32,27.2592593 C32,29.8761481 34.048,32 36.5714286,32 C39.0948571,32 41.1428571,29.8761481 41.1428571,27.2592593 C41.1428571,24.6423704 39.0948571,22.5185185 36.5714286,22.5185185 Z" id="Path" fill="#2D2D94"></path>
                        <path d="M29.8102857,28.4444444 L14.7611429,28.4444444 C14.8251429,28.0580741 14.8571429,27.6622222 14.8571429,27.2592593 C14.8571429,23.3339259 11.7851429,20.1481481 8,20.1481481 C4.21485714,20.1481481 1.14285714,23.3339259 1.14285714,27.2592593 C1.14285714,27.3540741 1.14514286,27.4488889 1.14742857,27.5437037 C0.443428571,26.8918519 0,25.9437037 0,24.8888889 L0,3.55555556 C0,1.59288889 1.536,0 3.42857143,0 L30.8571429,0 C32.7497143,0 34.2857143,1.59288889 34.2857143,3.55555556 L34.2857143,20.5534815 C31.6228571,21.5300741 29.7142857,24.1659259 29.7142857,27.2592593 C29.7142857,27.6622222 29.7462857,28.0580741 29.8102857,28.4444444 Z" id="Path" fill="#8AC832"></path>
                        <path d="M36.5714286,7.11111111 L42.2857143,7.11111111 C43.8011429,7.11111111 45.2548571,7.73451852 46.3268571,8.84622222 C47.3988571,9.95792593 48,11.4654815 48,13.037037 L48,14.2222222 L42.2857143,14.2222222 C41.6548571,14.2222222 41.1428571,14.7531852 41.1428571,15.4074074 C41.1428571,16.0616296 41.6548571,16.5925926 42.2857143,16.5925926 L48,16.5925926 L48,18.962963 L44.5714286,18.962963 C43.9405714,18.962963 43.4285714,19.4939259 43.4285714,20.1481481 C43.4285714,20.8023704 43.9405714,21.3333333 44.5714286,21.3333333 L48,21.3333333 L48,24.8888889 C48,25.8322963 47.6388571,26.7354074 46.9965714,27.4038519 C46.352,28.0699259 45.4811429,28.4444444 44.5714286,28.4444444 L43.3325714,28.4444444 C43.3965714,28.0580741 43.4285714,27.6622222 43.4285714,27.2592593 C43.4285714,23.3339259 40.3565714,20.1481481 36.5714286,20.1481481 L36.5714286,7.11111111 Z" id="Path" fill="#2D2D94"></path>
                    </g>
                </g>
            </g>
        </g>
    </g>
</svg>